<svg xmlns="http://www.w3.org/2000/svg" width="900" height="1600" viewBox="0 0 900 1600">
  <defs>
    <linearGradient id="room" x1="0" y1="0" x2="1" y2="1"><stop offset="0" stop-color="#d9d2c4"/><stop offset=".45" stop-color="#9d9284"/><stop offset="1" stop-color="#3d403d"/></linearGradient>
    <linearGradient id="floor" x1="0" y1="0" x2="0" y2="1"><stop offset="0" stop-color="#786d5e"/><stop offset="1" stop-color="#2f342f"/></linearGradient>
    <filter id="softShadow" x="-20%" y="-20%" width="140%" height="140%"><feDropShadow dx="0" dy="22" stdDeviation="24" flood-color="#000" flood-opacity=".35"/></filter>
  </defs>
  <rect width="900" height="1600" fill="#101318"/>
  <rect y="82" width="900" height="1130" fill="url(#room)"/>
  <rect y="625" width="900" height="587" fill="url(#floor)" opacity=".85"/>
  <path d="M136 720 L690 642 L806 1048 L224 1166 Z" fill="#8b6f4e" filter="url(#softShadow)"/>
  <path d="M160 742 L680 672 L772 1018 L235 1120 Z" fill="#b78959"/>
  <path d="M188 782 L654 718 L735 992 L259 1074 Z" fill="#c59a6b" opacity=".58"/>
  <g fill="none" stroke="#ffd23f" stroke-width="10" stroke-linecap="round" stroke-linejoin="round"><path d="M160 742 L680 672 L772 1018 L235 1120 Z"/><path d="M680 672 L680 538"/><path d="M772 1018 L772 1136"/></g>
  <g fill="#ffd23f" stroke="#151515" stroke-width="5"><circle cx="160" cy="742" r="20"/><circle cx="680" cy="672" r="20"/><circle cx="772" cy="1018" r="20"/><circle cx="235" cy="1120" r="20"/><circle cx="680" cy="538" r="16"/><circle cx="772" cy="1136" r="16"/></g>
  <g font-family="DejaVu-Sans" font-weight="700">
    <rect x="344" y="634" width="178" height="62" rx="31" fill="#101318" opacity=".92"/><text x="433" y="675" text-anchor="middle" font-size="30" fill="#fff4d3">8.2 ft</text>
    <rect x="572" y="1060" width="182" height="62" rx="31" fill="#101318" opacity=".92"/><text x="663" y="1101" text-anchor="middle" font-size="30" fill="#fff4d3">5.1 ft</text>
    <rect x="555" y="452" width="184" height="62" rx="31" fill="#101318" opacity=".92"/><text x="647" y="493" text-anchor="middle" font-size="30" fill="#fff4d3">2.8 ft</text>
    <rect x="264" y="858" width="256" height="92" rx="22" fill="#101318" opacity=".9"/><text x="392" y="895" text-anchor="middle" font-size="24" fill="#5fb6ad">AREA</text><text x="392" y="930" text-anchor="middle" font-size="34" fill="#fff4d3">41.8 sq ft</text>
  </g>
  <rect width="900" height="88" fill="#0f1217" opacity=".96"/>
  <text x="70" y="58" font-family="DejaVu-Sans" font-size="28" font-weight="700" fill="#ece7da">Measure</text>
  <text x="830" y="58" text-anchor="end" font-family="DejaVu-Sans" font-size="24" fill="#5fb6ad">Area</text>
  <rect y="1212" width="900" height="388" fill="#0f1217"/>
  <g font-family="DejaVu-Sans" font-size="26" font-weight="700">
    <rect x="92" y="1270" width="178" height="62" rx="31" fill="#e8a23a"/><text x="181" y="1310" text-anchor="middle" fill="#0a0c0f">Area</text>
    <rect x="300" y="1270" width="178" height="62" rx="31" fill="#1e232b"/><text x="389" y="1310" text-anchor="middle" fill="#a39d8f">Length</text>
    <rect x="508" y="1270" width="178" height="62" rx="31" fill="#1e232b"/><text x="597" y="1310" text-anchor="middle" fill="#a39d8f">Height</text>
    <circle cx="450" cy="1458" r="54" fill="none" stroke="#ece7da" stroke-width="8"/>
  </g>
</svg>
