<svg xmlns="http://www.w3.org/2000/svg" width="900" height="1600" viewBox="0 0 900 1600">
  <defs><radialGradient id="sky" cx="50%" cy="42%" r="70%"><stop offset="0" stop-color="#1c2734"/><stop offset=".55" stop-color="#0e141c"/><stop offset="1" stop-color="#05070a"/></radialGradient></defs>
  <rect width="900" height="1600" fill="url(#sky)"/><text x="70" y="112" font-family="DejaVu-Sans" font-size="38" font-weight="700" fill="#ece7da">Star Gaze</text><text x="832" y="112" text-anchor="end" font-family="DejaVu-Sans" font-size="28" fill="#5fb6ad">SW</text>
  <g fill="#ece7da"><circle cx="188" cy="246" r="3"/><circle cx="344" cy="184" r="4"/><circle cx="624" cy="262" r="3"/><circle cx="734" cy="398" r="5"/><circle cx="278" cy="540" r="3"/><circle cx="540" cy="602" r="4"/><circle cx="156" cy="756" r="3"/><circle cx="782" cy="810" r="3"/><circle cx="390" cy="902" r="4"/><circle cx="686" cy="1040" r="3"/><circle cx="236" cy="1130" r="3"/><circle cx="590" cy="1240" r="4"/></g>
  <g stroke="#5fb6ad" stroke-width="4" fill="none" opacity=".86"><path d="M252 410 L404 492 L540 454 L642 582 L604 746 L438 782 L330 650 Z"/><path d="M404 492 L438 782"/><path d="M540 454 L604 746"/></g>
  <g fill="#e8a23a" stroke="#0a0c0f" stroke-width="4"><circle cx="252" cy="410" r="12"/><circle cx="404" cy="492" r="12"/><circle cx="540" cy="454" r="12"/><circle cx="642" cy="582" r="12"/><circle cx="604" cy="746" r="12"/><circle cx="438" cy="782" r="12"/><circle cx="330" cy="650" r="12"/></g>
  <g font-family="DejaVu-Sans" font-size="24" fill="#ece7da"><text x="662" y="586">Betelgeuse</text><text x="620" y="796">Rigel</text><text x="276" y="398">Orion</text></g>
  <path d="M0 1170 C188 1080 350 1108 530 1036 C694 970 812 1010 900 942 L900 1600 L0 1600 Z" fill="#080a0d" opacity=".92"/>
  <rect x="70" y="1274" width="760" height="192" rx="30" fill="#13161b" stroke="#2a2f38" stroke-width="2"/><text x="112" y="1340" font-family="DejaVu-Sans" font-size="24" fill="#e8a23a">CONSTELLATION</text><text x="112" y="1410" font-family="DejaVu-Sans" font-size="62" fill="#ece7da">Orion</text><text x="710" y="1410" text-anchor="end" font-family="DejaVu-Sans" font-size="24" fill="#5fb6ad">visible now</text>
</svg>
