<svg xmlns="http://www.w3.org/2000/svg" width="900" height="1600" viewBox="0 0 900 1600">
  <rect width="900" height="1600" fill="#0a0c0f"/><rect x="54" y="84" width="792" height="1432" rx="38" fill="#13161b" stroke="#2a2f38" stroke-width="3"/>
  <text x="92" y="170" font-family="DejaVu-Sans" font-size="42" font-weight="700" fill="#ece7da">Translation</text>
  <rect x="92" y="254" width="716" height="394" rx="30" fill="#0e1116" stroke="#2a2f38" stroke-width="2"/><text x="130" y="322" font-family="DejaVu-Sans" font-size="25" fill="#e8a23a">English</text><text x="130" y="430" font-family="DejaVu-Sans" font-size="70" fill="#ece7da">Good</text><text x="130" y="510" font-family="DejaVu-Sans" font-size="70" fill="#ece7da">morning</text><circle cx="744" cy="560" r="38" fill="#1e232b"/><text x="744" y="570" text-anchor="middle" font-family="DejaVu-Sans" font-size="28" fill="#5fb6ad">copy</text>
  <circle cx="450" cy="720" r="50" fill="#5fb6ad"/><text x="450" y="733" text-anchor="middle" font-family="DejaVu-Sans" font-size="34" font-weight="700" fill="#0a0c0f">swap</text>
  <rect x="92" y="792" width="716" height="454" rx="30" fill="#181c23" stroke="#2a2f38" stroke-width="2"/><text x="130" y="860" font-family="DejaVu-Sans" font-size="25" fill="#5fb6ad">Spanish</text><text x="130" y="982" font-family="DejaVu-Sans" font-size="72" fill="#ece7da">Buenos</text><text x="130" y="1064" font-family="DejaVu-Sans" font-size="72" fill="#ece7da">dias</text>
  <rect x="130" y="1146" width="156" height="64" rx="32" fill="#e8a23a"/><text x="208" y="1187" text-anchor="middle" font-family="DejaVu-Sans" font-size="24" font-weight="700" fill="#0a0c0f">Listen</text><rect x="312" y="1146" width="132" height="64" rx="32" fill="#1e232b"/><text x="378" y="1187" text-anchor="middle" font-family="DejaVu-Sans" font-size="24" fill="#a39d8f">Copy</text><rect x="92" y="1332" width="716" height="82" rx="41" fill="#0e1116"/><text x="130" y="1384" font-family="DejaVu-Sans" font-size="24" fill="#6c6960">50+ languages, no account</text>
</svg>
