<svg xmlns="http://www.w3.org/2000/svg" width="900" height="1600" viewBox="0 0 900 1600">
  <rect width="900" height="1600" fill="#0a0c0f"/><rect x="54" y="84" width="792" height="1432" rx="38" fill="#13161b" stroke="#2a2f38" stroke-width="3"/>
  <text x="92" y="170" font-family="DejaVu-Sans" font-size="42" font-weight="700" fill="#ece7da">Unit Conversion</text><text x="92" y="224" font-family="DejaVu-Sans" font-size="24" fill="#a39d8f">Offline instant results</text>
  <rect x="92" y="286" width="220" height="66" rx="33" fill="#e8a23a"/><text x="202" y="328" text-anchor="middle" font-family="DejaVu-Sans" font-size="24" font-weight="700" fill="#0a0c0f">Length</text>
  <rect x="336" y="286" width="196" height="66" rx="33" fill="#1e232b"/><text x="434" y="328" text-anchor="middle" font-family="DejaVu-Sans" font-size="24" fill="#a39d8f">Mass</text>
  <rect x="556" y="286" width="196" height="66" rx="33" fill="#1e232b"/><text x="654" y="328" text-anchor="middle" font-family="DejaVu-Sans" font-size="24" fill="#a39d8f">Temp</text>
  <rect x="92" y="430" width="716" height="190" rx="28" fill="#0e1116" stroke="#2a2f38" stroke-width="2"/><text x="130" y="490" font-family="DejaVu-Sans" font-size="24" fill="#6c6960">From</text><text x="130" y="565" font-family="DejaVu-Sans" font-size="72" fill="#ece7da">12.5 m</text><text x="744" y="565" text-anchor="end" font-family="DejaVu-Sans" font-size="26" fill="#5fb6ad">meters</text>
  <g font-family="DejaVu-Sans"><rect x="92" y="680" width="716" height="132" rx="24" fill="#181c23"/><text x="130" y="735" font-size="24" fill="#a39d8f">Feet</text><text x="768" y="755" text-anchor="end" font-size="46" font-weight="700" fill="#ece7da">41.01 ft</text><rect x="92" y="844" width="716" height="132" rx="24" fill="#181c23"/><text x="130" y="899" font-size="24" fill="#a39d8f">Inches</text><text x="768" y="919" text-anchor="end" font-size="46" font-weight="700" fill="#ece7da">492.13 in</text><rect x="92" y="1008" width="716" height="132" rx="24" fill="#181c23"/><text x="130" y="1063" font-size="24" fill="#a39d8f">Yards</text><text x="768" y="1083" text-anchor="end" font-size="46" font-weight="700" fill="#ece7da">13.67 yd</text></g>
  <rect x="92" y="1238" width="716" height="164" rx="26" fill="#0e1116" stroke="#1f242c" stroke-width="2"/><text x="130" y="1300" font-family="DejaVu-Sans" font-size="24" fill="#e8a23a">Recent</text><text x="130" y="1365" font-family="DejaVu-Sans" font-size="30" fill="#a39d8f">5 mi = 8.05 km</text>
</svg>
